<svg viewBox="0 0 1080 1080" fill="none" xmlns="http://www.w3.org/2000/svg">      <defs>  <filter id="filter" x="-20%" y="-20%" width="140%" height="140%" filterUnits="objectBoundingBox" primitiveUnits="userSpaceOnUse" color-interpolation-filters="linearRGB">    <feMorphology operator="dilate" radius="20 20" in="SourceAlpha" result="morphology"/>    <feFlood flood-color="#ffffff" flood-opacity="1" result="flood"/>    <feComposite in="flood" in2="morphology" operator="in" result="composite"/>    <feMerge result="merge">          <feMergeNode in="composite" result="mergeNode"/>      <feMergeNode in="SourceGraphic" result="mergeNode1"/>      </feMerge>  </filter></defs>      <g id="notion-avatar" filter="url(#filter)">        <g id="notion-avatar-face" fill="#ffffff">      <!--?xml version="1.0" encoding="UTF-8"?-->    <title>Face/ 8</title>    <g id="Face/-8" stroke="none" stroke-width="1" fill-rule="evenodd" stroke-linecap="round" stroke-linejoin="round">        <path d="M532,379 C664.54834,379 772,486.45166 772,619 C772,751.54834 724.54834,899 592,899 C492.560218,899 373.476049,816.010833 320.189513,718.584987 C317.498129,718.859681 314.765451,719 312,719 C267.81722,719 232,683.18278 232,639 C232,599.134956 261.158843,566.080325 299.312086,560.00055 C325.599297,455.979213 419.809919,379 532,379 Z M295.858895,624.545187 L304.141105,655.454813" id="Path" stroke="#000000" stroke-width="24"/>    </g>    </g><g id="notion-avatar-nose">      <!--?xml version="1.0" encoding="UTF-8"?-->    <title>Nose/ 0</title>    <g id="Nose/-0" stroke="none" stroke-width="1" fill="none" fill-rule="evenodd" stroke-linecap="round" stroke-linejoin="round">        <line x1="637" y1="596" x2="661.856189" y2="682.499537" id="Line" stroke="#000000" stroke-width="16" transform="translate(649.428094, 639.249768) rotate(1.032339) translate(-649.428094, -639.249768) "/>    </g>    </g><g id="notion-avatar-mouth">      <g id="Mouth/ 13"><g id="Group"><path id="Path" d="M528 765C528 765 599.931 769.393 623.066 764.87C646.202 760.346 687 744 687 744" stroke="black" stroke-width="16" stroke-linecap="round" stroke-linejoin="round"/><path id="Path_2" d="M668 756C668 756 668 785.043 638.943 793.34C609.886 801.638 555 768.447 555 768.447" stroke="black" stroke-width="16" stroke-linecap="round" stroke-linejoin="round"/><path id="Path_3" d="M505.348 782.386C505.348 782.386 499.053 772.522 503.446 759.4C507.839 746.278 519.439 740.299 519.439 740.299" stroke="black" stroke-width="6" stroke-linecap="round" stroke-linejoin="round"/><path id="Path_4" d="M711.499 747.668C711.499 747.668 714.478 743.128 712.342 737.053C710.205 730.977 704.647 728.182 704.647 728.182" stroke="black" stroke-width="6" stroke-linecap="round" stroke-linejoin="round"/></g></g>    </g><g id="notion-avatar-eyes">      <!--?xml version="1.0" encoding="UTF-8"?-->    <title>Eyes/ 0</title>    <g id="Eyes/-0" stroke="none" stroke-width="1" fill="none" fill-rule="evenodd">        <path d="M570,516 C583.254834,516 594,526.745166 594,540 C594,553.254834 583.254834,564 570,564 C556.745166,564 546,553.254834 546,540 C546,526.745166 556.745166,516 570,516 Z M708,516 C721.254834,516 732,526.745166 732,540 C732,553.254834 721.254834,564 708,564 C694.745166,564 684,553.254834 684,540 C684,526.745166 694.745166,516 708,516 Z" id="Combined-Shape" fill="#000000"/>    </g>    </g><g id="notion-avatar-eyebrows">      <g id="Eyebrows/ 12"><g id="Group"><path id="Path" fill-rule="evenodd" clip-rule="evenodd" d="M681 505.316C681 505.316 698.641 492.863 706.392 490.578C714.144 488.294 738 489.316 738 489.316L755 494.913C755 494.913 730.25 494.897 716.549 497.08C702.848 499.263 681 505.316 681 505.316Z" fill="black" stroke="black" stroke-width="8" stroke-linecap="round" stroke-linejoin="round"/><path id="Path_2" fill-rule="evenodd" clip-rule="evenodd" d="M597 505.316C597 505.316 579.359 492.863 571.608 490.578C563.856 488.294 540 489.316 540 489.316L523 494.913C523 494.913 547.75 494.897 561.451 497.08C575.152 499.263 597 505.316 597 505.316Z" fill="black" stroke="black" stroke-width="8" stroke-linecap="round" stroke-linejoin="round"/></g></g>    </g><g id="notion-avatar-glasses">      <!--?xml version="1.0" encoding="UTF-8"?-->    <title>Glasses/ 4</title>    <g id="Glasses/-4" stroke="none" stroke-width="1" fill="none" fill-rule="evenodd" stroke-linecap="round" stroke-linejoin="round">        <g id="Group" transform="translate(289.000000, 479.000000)" fill="#000000" stroke="#000000" stroke-width="4">            <path d="M229.149255,4.2334278 C247.672154,8.12981325 283.261021,21.6236388 324.690343,35.0615291 L325.464481,35.3078466 C331.11768,37.0729902 339.032765,38.8353007 349.209737,40.594778 L349.209737,57.984989 C344.161954,60.5093754 341.061801,62.8807678 339.909277,65.0991662 C325.535839,92.7654109 298.479956,110.946086 257.050634,101.460516 C200.767297,88.5740028 181.801459,20.8331746 180.110466,9.76667675 C178.419474,-1.29982114 196.205221,-2.69651627 229.149255,4.2334278 Z M519.889534,9.76667675 C518.198541,20.8331746 499.232703,88.5740028 442.949366,101.460516 C401.520044,110.946086 374.464161,92.7654109 360.090723,65.0991662 C358.969348,62.9407245 356.004199,60.637447 351.195275,58.1893337 L350.790263,57.984989 L350.790263,40.594778 L352.195626,40.3492512 C362.16219,38.5895103 369.866867,36.8269363 375.309657,35.0615291 L377.788318,34.2552658 C418.155707,21.0877247 452.698304,8.05188555 470.850745,4.2334278 L472.809163,3.82763387 C504.498419,-2.63678054 521.546707,-1.07849118 519.889534,9.76667675 Z M213.93032,27.1568877 C197.020393,46.9184911 229.149255,89.6035544 261.278116,97.5081958 C293.406978,105.412837 334.836299,80.9084489 327.226832,57.984989 C319.617364,35.0615291 239.295211,8.97621262 213.93032,27.1568877 Z M486.06968,27.1568877 C460.704789,8.97621262 380.382636,35.0615291 372.773168,57.984989 C365.163701,80.9084489 406.593022,105.412837 438.721884,97.5081958 C470.850745,89.6035544 502.979607,46.9184911 486.06968,27.1568877 Z" id="Combined-Shape"/>            <polygon id="Path" points="199 30 4 62 0 71 199 51"/>        </g>    </g>    </g><g id="notion-avatar-hair">      <g id="Hairstyle/ 42"><path id="Path" fill-rule="evenodd" clip-rule="evenodd" d="M524 224C538 226.667 547.667 230.667 553 236C558.333 241.333 562.667 250.667 566 264C566 264 582 243 584 238C586 233 586 210 586 210C586 210 594.605 216.518 596 227C597.395 237.482 595.814 237.139 594 249C604.667 254.333 615.121 249.013 621.788 243.013C628.455 237.013 632.788 229.68 634.788 221.013C641.017 224.834 645.683 229.168 648.788 234.013C651.893 238.859 655.153 246.896 658.567 258.125C665.419 255.141 669.949 252.207 672.159 249.323C674.368 246.439 675.967 241.372 676.956 234.121C678.787 238.211 679.853 241.411 680.154 243.722C680.455 246.033 678.212 271.784 677 281C682.536 279.104 686.703 278.897 692 275C699.333 269.605 705 261 705 261C705 261 705.85 275.428 705 285C704.15 294.572 700.141 315.734 700.141 315.734C700.141 315.734 731.918 310.132 734.788 297.013C736.702 288.268 734.247 279.588 723 275C737 275 745.471 277.269 752.108 284.529C762.064 295.42 757.788 309.013 750.788 318.013C746.121 324.013 740.788 328.347 734.788 331.013C749.943 334.967 759.563 333.71 763.646 327.244L763.788 327.013C767.788 320.347 776.121 312.68 788.788 304.013L788.449 305.898C783.014 336.438 782.359 355.186 786.486 362.142C786.486 362.142 792.952 358.462 795 356C800.369 349.546 801.669 345.497 801 352C799.575 365.855 787.832 385.38 780.102 390.538C775.593 393.546 768.502 395.556 758.828 396.567C757.847 398.597 756.809 400.567 755.717 402.478C758.235 408.042 764.663 410.216 775 409C788.262 407.439 798.262 400.106 805 387C805 399.667 799.333 411 788 421L786.985 421.89C770.483 436.271 757.694 442.784 734 438C729.85 437.162 726.25 436.092 723.2 434.79C715.672 438.987 707.271 442.25 698 444.579L695.953 445.088C686.406 447.438 672.404 450.562 656.009 453.474C654.179 458.121 652.083 462.012 648 464C641.181 467.32 630.383 465.75 615.605 459.288C613.208 459.546 610.797 459.789 608.377 460.014L606.958 460.875C595.06 468.16 589.408 473.201 590 476C591.225 481.788 600.892 485.788 619 488L617.263 488.404C601.757 491.961 589.67 493.494 581 493C572.009 492.488 562.158 489.54 551.447 484.154L549.835 484.692C538.795 488.416 532.85 491.185 532 493C529.814 497.668 528.147 502.335 527 507L495.482 484.154C487.649 483.633 478.821 480.915 469 476C459.179 471.085 452.549 466.069 449.112 460.95C431.497 465.117 421.104 470.185 417.932 476.153C413.174 485.105 409.432 486.597 421 492C428.712 495.602 439.905 495.602 454.579 492L453.239 493.008C438.585 503.948 423.678 504.443 412 503C400.322 501.557 388.999 489.606 388.999 489.606L389.407 491.845C391.379 502.861 392.365 511.159 392.365 516.739C392.365 528.233 383.924 572.725 367.044 650.214L366 655L328.117 564.825H287.146C271.78 507.747 268.106 468.653 276.123 447.542C283.951 426.927 303.884 411.158 335.92 400.236L334 397C326.231 383.602 339.512 379.865 343.843 357.79C348.173 335.715 357.788 343.013 372.788 323.013C372.788 323.013 393 295 433 275C473 255 504.651 265.527 521.788 264.013C538.926 262.5 543 272 543 253C543 240.333 536.667 230.667 524 224Z" fill="black" stroke="black" stroke-width="12" stroke-linecap="round" stroke-linejoin="round"/></g>    </g><g id="notion-avatar-accessories">      <!--?xml version="1.0" encoding="UTF-8"?-->    <title>Accessories/ 0</title>    <g id="Accessories/-0" stroke="none" stroke-width="1" fill="none" fill-rule="evenodd"/>    </g><g id="notion-avatar-details">      <!--?xml version="1.0" encoding="UTF-8"?-->    <title>Details/ 0</title>    <g id="Details/-0" stroke="none" stroke-width="1" fill="none" fill-rule="evenodd"/>    </g><g id="notion-avatar-beard">      <!--?xml version="1.0" encoding="UTF-8"?-->    <title>Beard/ 0</title>    <g id="Beard/-0" stroke="none" stroke-width="1" fill="none" fill-rule="evenodd"/>    </g>      </g>      </svg>